<?xml version="1.0" encoding="utf-8"?>
<!-- Generator: Adobe Illustrator 25.1.0, SVG Export Plug-In . SVG Version: 6.00 Build 0)  -->
<svg version="1.1" id="Layer_1" xmlns="http://www.w3.org/2000/svg" xmlns:xlink="http://www.w3.org/1999/xlink" x="0px" y="0px"
	 viewBox="0 0 128 128" style="enable-background:new 0 0 128 128;" xml:space="preserve">
<style type="text/css">
	.st0{fill:#92A2FB;}
</style>
<path class="st0" d="M45.5,104.3c37.4,0,57.9-31,57.9-57.9c0-0.8,0-1.8-0.1-2.6c4-2.8,7.4-6.4,10.2-10.5c-3.7,1.7-7.7,2.7-11.6,3.3
	c4.3-2.5,7.4-6.5,8.9-11.2c-4,2.4-8.4,4.1-12.9,4.9C90.1,22,77.3,21.6,69,29.4c-5.2,4.9-7.6,12.4-5.9,19.4
	c-16.4-0.8-31.6-8.6-42-21.3c-5.5,9.3-2.6,21.2,6.3,27.2c-3.3-0.1-6.4-0.9-9.2-2.5c0,0.1,0,0.2,0,0.2c0,9.7,6.8,18,16.4,19.9
	c-3,0.8-6.2,0.9-9.2,0.3c2.6,8.3,10.3,14,19,14.2c-7.1,5.7-15.9,8.7-25.2,8.7c-1.6,0-3.3-0.1-4.8-0.3
	C23.7,101.1,34.5,104.3,45.5,104.3"/>
</svg>
