<?xml version="1.0" encoding="utf-8"?>
<!-- Generator: Adobe Illustrator 24.2.3, SVG Export Plug-In . SVG Version: 6.00 Build 0)  -->
<svg version="1.1" id="Layer_1" xmlns="http://www.w3.org/2000/svg" xmlns:xlink="http://www.w3.org/1999/xlink" x="0px" y="0px"
	 viewBox="0 0 500 10" style="enable-background:new 0 0 500 10;" xml:space="preserve">
<style type="text/css">
	.st0{fill:#0B0E17;}
	.st1{fill:none;stroke:url(#wavy_line_3_);stroke-width:2;stroke-miterlimit:10;}
</style>
<path id="wavy_line_1_" class="st0" d="M520,9c-33.75,0-33.75-8-67.5-8S418.75,9,385,9s-33.75-8-67.5-8S283.75,9,250,9
	s-33.75-8-67.5-8S148.75,9,115,9C81.26,9,81.26,1,47.5,1S13.75,9-20,9v2h540V9z"/>
<linearGradient id="wavy_line_3_" gradientUnits="userSpaceOnUse" x1="816.9758" y1="-412.1891" x2="816.9758" y2="127.8109" gradientTransform="matrix(0 1 1 0 392.1891 -811.9758)">
	<stop  offset="0" style="stop-color:#DBA0FC"/>
	<stop  offset="0.2033" style="stop-color:#FFFFFF"/>
	<stop  offset="0.3626" style="stop-color:#D872FF"/>
	<stop  offset="0.3984" style="stop-color:#EDABF5"/>
	<stop  offset="0.5209" style="stop-color:#4DF8CE"/>
	<stop  offset="0.7687" style="stop-color:#84A1FD"/>
	<stop  offset="0.8949" style="stop-color:#E3A5EE"/>
	<stop  offset="1" style="stop-color:#EDE6BC"/>
</linearGradient>
<path id="wavy_line_2_" class="st1" d="M520,9c-33.75,0-33.75-8-67.5-8S418.75,9,385,9s-33.75-8-67.5-8S283.75,9,250,9
	s-33.75-8-67.5-8S148.75,9,115,9C81.26,9,81.26,1,47.5,1S13.75,9-20,9"/>
</svg>
