<?xml version="1.0" encoding="utf-8"?>
<!-- Generator: Adobe Illustrator 25.1.0, SVG Export Plug-In . SVG Version: 6.00 Build 0)  -->
<svg version="1.1" id="Layer_1" xmlns="http://www.w3.org/2000/svg" xmlns:xlink="http://www.w3.org/1999/xlink" x="0px" y="0px"
	 viewBox="0 0 128 128" style="enable-background:new 0 0 128 128;" xml:space="preserve">
<style type="text/css">
	.st0{fill-rule:evenodd;clip-rule:evenodd;fill:#E6BADE;}
</style>
<path class="st0" d="M26.4,109h75.2c4.1,0,7.4-3.3,7.4-7.4V26.4c0-4.1-3.3-7.4-7.4-7.4H26.4c-4.1,0-7.4,3.3-7.4,7.4v75.2
	C19,105.7,22.3,109,26.4,109z M53.4,53.4H66v6.3c1.7-3.4,6.6-7,13.1-7c12.4,0,16.7,5.6,16.7,19v24H82.5V74.5c0-7-1.4-10.9-6.5-10.9
	c-6.9,0-9.4,5.3-9.4,10.9v21.2H53.4V53.4L53.4,53.4z M32.2,95.8h13.2V53.4H32.2V95.8z M46.9,38.9c0,4.5-3.6,8.1-8.1,8.1
	s-8.1-3.6-8.1-8.1s3.6-8.1,8.1-8.1S46.9,34.4,46.9,38.9z"/>
</svg>
